<svg width="830" height="616" viewBox="0 0 830 616" fill="none" xmlns="http://www.w3.org/2000/svg">
<path opacity="0.5" d="M634 87.1414L648.85 72.6301C654.678 66.9342 663.988 66.9342 669.817 72.6301L674.183 76.8965C680.012 82.5924 689.322 82.5924 695.15 76.8966L710 62.3853" stroke="#4E887A" stroke-width="13" stroke-linecap="round"/>
<path opacity="0.5" d="M715 99.0242L729.85 84.5129C735.678 78.817 744.988 78.817 750.817 84.5129L755.183 88.7794C761.012 94.4752 770.322 94.4752 776.15 88.7794L791 74.2681" stroke="#4E887A" stroke-width="13" stroke-linecap="round"/>
<path opacity="0.5" d="M7 597.117L21.8497 582.606C27.6783 576.91 36.9884 576.91 42.817 582.606L47.183 586.872C53.0116 592.568 62.3217 592.568 68.1503 586.872L83 572.361" stroke="#4E887A" stroke-width="13" stroke-linecap="round"/>
<path opacity="0.5" d="M88 609L102.85 594.489C108.678 588.793 117.988 588.793 123.817 594.489L128.183 598.755C134.012 604.451 143.322 604.451 149.15 598.755L164 584.244" stroke="#4E887A" stroke-width="13" stroke-linecap="round"/>
<ellipse opacity="0.5" cx="787.5" cy="542.158" rx="20.5" ry="20.3" fill="#4E887A"/>
<ellipse opacity="0.5" cx="780.5" cy="590.68" rx="13.5" ry="13.3683" fill="#4E887A"/>
<ellipse opacity="0.5" cx="819" cy="569.39" rx="11" ry="10.8927" fill="#4E887A"/>
<ellipse opacity="0.5" cx="158.5" cy="15.3488" rx="15.5" ry="15.3488" fill="#4E887A"/>
<ellipse opacity="0.5" cx="153.5" cy="51.9879" rx="10.5" ry="10.3976" fill="#4E887A"/>
<ellipse opacity="0.5" cx="182.5" cy="36.1439" rx="8.5" ry="8.41707" fill="#4E887A"/>
</svg>
