<svg width="152" height="83" viewBox="0 0 152 83" fill="none" xmlns="http://www.w3.org/2000/svg">
<circle opacity="0.5" cx="42.5" cy="62.5" r="20.5" transform="rotate(180 42.5 62.5)" fill="#FFBDA7"/>
<circle opacity="0.5" cx="49.5" cy="13.5" r="13.5" transform="rotate(180 49.5 13.5)" fill="#FFBDA7"/>
<circle opacity="0.5" cx="11" cy="35" r="11" transform="rotate(180 11 35)" fill="#FFBDA7"/>
<path d="M32.8467 42.175C31.63 42.175 30.53 41.9667 29.5467 41.55C28.58 41.1333 27.8133 40.5333 27.2467 39.75C26.68 38.9667 26.3883 38.0417 26.3717 36.975H30.1217C30.1717 37.6917 30.4217 38.2583 30.8717 38.675C31.3383 39.0917 31.9717 39.3 32.7717 39.3C33.5883 39.3 34.23 39.1083 34.6967 38.725C35.1633 38.325 35.3967 37.8083 35.3967 37.175C35.3967 36.6583 35.2383 36.2333 34.9217 35.9C34.605 35.5667 34.205 35.3083 33.7217 35.125C33.255 34.925 32.605 34.7083 31.7717 34.475C30.6383 34.1417 29.7133 33.8167 28.9967 33.5C28.2967 33.1667 27.6883 32.675 27.1717 32.025C26.6717 31.3583 26.4217 30.475 26.4217 29.375C26.4217 28.3417 26.68 27.4417 27.1967 26.675C27.7133 25.9083 28.4383 25.325 29.3717 24.925C30.305 24.5083 31.3717 24.3 32.5717 24.3C34.3717 24.3 35.83 24.7417 36.9467 25.625C38.08 26.4917 38.705 27.7083 38.8217 29.275H34.9717C34.9383 28.675 34.68 28.1833 34.1967 27.8C33.73 27.4 33.105 27.2 32.3217 27.2C31.6383 27.2 31.0883 27.375 30.6717 27.725C30.2717 28.075 30.0717 28.5833 30.0717 29.25C30.0717 29.7167 30.2217 30.1083 30.5217 30.425C30.8383 30.725 31.2217 30.975 31.6717 31.175C32.1383 31.3583 32.7883 31.575 33.6217 31.825C34.755 32.1583 35.68 32.4917 36.3967 32.825C37.1133 33.1583 37.73 33.6583 38.2467 34.325C38.7633 34.9917 39.0217 35.8667 39.0217 36.95C39.0217 37.8833 38.78 38.75 38.2967 39.55C37.8133 40.35 37.105 40.9917 36.1717 41.475C35.2383 41.9417 34.13 42.175 32.8467 42.175ZM55.1311 28.15V42H51.6061V40.25C51.1561 40.85 50.5644 41.325 49.8311 41.675C49.1144 42.0083 48.3311 42.175 47.4811 42.175C46.3977 42.175 45.4394 41.95 44.6061 41.5C43.7727 41.0333 43.1144 40.3583 42.6311 39.475C42.1644 38.575 41.9311 37.5083 41.9311 36.275V28.15H45.4311V35.775C45.4311 36.875 45.7061 37.725 46.2561 38.325C46.8061 38.9083 47.5561 39.2 48.5061 39.2C49.4727 39.2 50.2311 38.9083 50.7811 38.325C51.3311 37.725 51.6061 36.875 51.6061 35.775V28.15H55.1311ZM62.0844 30.175C62.5344 29.5083 63.151 28.9667 63.9344 28.55C64.7344 28.1333 65.6427 27.925 66.6594 27.925C67.8427 27.925 68.9094 28.2167 69.8594 28.8C70.826 29.3833 71.5844 30.2167 72.1344 31.3C72.701 32.3667 72.9844 33.6083 72.9844 35.025C72.9844 36.4417 72.701 37.7 72.1344 38.8C71.5844 39.8833 70.826 40.725 69.8594 41.325C68.9094 41.925 67.8427 42.225 66.6594 42.225C65.626 42.225 64.7177 42.025 63.9344 41.625C63.1677 41.2083 62.551 40.675 62.0844 40.025V42H58.5844V23.5H62.0844V30.175ZM69.4094 35.025C69.4094 34.1917 69.2344 33.475 68.8844 32.875C68.551 32.2583 68.101 31.7917 67.5344 31.475C66.9844 31.1583 66.3844 31 65.7344 31C65.101 31 64.501 31.1667 63.9344 31.5C63.3844 31.8167 62.9344 32.2833 62.5844 32.9C62.251 33.5167 62.0844 34.2417 62.0844 35.075C62.0844 35.9083 62.251 36.6333 62.5844 37.25C62.9344 37.8667 63.3844 38.3417 63.9344 38.675C64.501 38.9917 65.101 39.15 65.7344 39.15C66.3844 39.15 66.9844 38.9833 67.5344 38.65C68.101 38.3167 68.551 37.8417 68.8844 37.225C69.2344 36.6083 69.4094 35.875 69.4094 35.025ZM80.8277 42.225C79.6944 42.225 78.6777 42.025 77.7777 41.625C76.8777 41.2083 76.1611 40.65 75.6277 39.95C75.1111 39.25 74.8277 38.475 74.7777 37.625H78.3027C78.3694 38.1583 78.6277 38.6 79.0777 38.95C79.5444 39.3 80.1194 39.475 80.8027 39.475C81.4694 39.475 81.9861 39.3417 82.3527 39.075C82.7361 38.8083 82.9277 38.4667 82.9277 38.05C82.9277 37.6 82.6944 37.2667 82.2277 37.05C81.7777 36.8167 81.0527 36.5667 80.0527 36.3C79.0194 36.05 78.1694 35.7917 77.5027 35.525C76.8527 35.2583 76.2861 34.85 75.8027 34.3C75.3361 33.75 75.1027 33.0083 75.1027 32.075C75.1027 31.3083 75.3194 30.6083 75.7527 29.975C76.2027 29.3417 76.8361 28.8417 77.6527 28.475C78.4861 28.1083 79.4611 27.925 80.5777 27.925C82.2277 27.925 83.5444 28.3417 84.5277 29.175C85.5111 29.9917 86.0527 31.1 86.1527 32.5H82.8027C82.7527 31.95 82.5194 31.5167 82.1027 31.2C81.7027 30.8667 81.1611 30.7 80.4777 30.7C79.8444 30.7 79.3527 30.8167 79.0027 31.05C78.6694 31.2833 78.5027 31.6083 78.5027 32.025C78.5027 32.4917 78.7361 32.85 79.2027 33.1C79.6694 33.3333 80.3944 33.575 81.3777 33.825C82.3777 34.075 83.2027 34.3333 83.8527 34.6C84.5027 34.8667 85.0611 35.2833 85.5277 35.85C86.0111 36.4 86.2611 37.1333 86.2777 38.05C86.2777 38.85 86.0527 39.5667 85.6027 40.2C85.1694 40.8333 84.5361 41.3333 83.7027 41.7C82.8861 42.05 81.9277 42.225 80.8277 42.225ZM88.2508 35.075C88.2508 33.6417 88.5424 32.3917 89.1258 31.325C89.7091 30.2417 90.5174 29.4083 91.5508 28.825C92.5841 28.225 93.7674 27.925 95.1008 27.925C96.8174 27.925 98.2341 28.3583 99.3508 29.225C100.484 30.075 101.242 31.275 101.626 32.825H97.8508C97.6508 32.225 97.3091 31.7583 96.8258 31.425C96.3591 31.075 95.7758 30.9 95.0758 30.9C94.0758 30.9 93.2841 31.2667 92.7008 32C92.1174 32.7167 91.8258 33.7417 91.8258 35.075C91.8258 36.3917 92.1174 37.4167 92.7008 38.15C93.2841 38.8667 94.0758 39.225 95.0758 39.225C96.4924 39.225 97.4174 38.5917 97.8508 37.325H101.626C101.242 38.825 100.484 40.0167 99.3508 40.9C98.2174 41.7833 96.8008 42.225 95.1008 42.225C93.7674 42.225 92.5841 41.9333 91.5508 41.35C90.5174 40.75 89.7091 39.9167 89.1258 38.85C88.5424 37.7667 88.2508 36.5083 88.2508 35.075ZM107.69 30.3C108.14 29.5667 108.723 28.9917 109.44 28.575C110.173 28.1583 111.007 27.95 111.94 27.95V31.625H111.015C109.915 31.625 109.082 31.8833 108.515 32.4C107.965 32.9167 107.69 33.8167 107.69 35.1V42H104.19V28.15H107.69V30.3ZM116.072 26.5C115.456 26.5 114.939 26.3083 114.522 25.925C114.122 25.525 113.922 25.0333 113.922 24.45C113.922 23.8667 114.122 23.3833 114.522 23C114.939 22.6 115.456 22.4 116.072 22.4C116.689 22.4 117.197 22.6 117.597 23C118.014 23.3833 118.222 23.8667 118.222 24.45C118.222 25.0333 118.014 25.525 117.597 25.925C117.197 26.3083 116.689 26.5 116.072 26.5ZM117.797 28.15V42H114.297V28.15H117.797ZM124.755 30.175C125.205 29.5083 125.822 28.9667 126.605 28.55C127.405 28.1333 128.314 27.925 129.33 27.925C130.514 27.925 131.58 28.2167 132.53 28.8C133.497 29.3833 134.255 30.2167 134.805 31.3C135.372 32.3667 135.655 33.6083 135.655 35.025C135.655 36.4417 135.372 37.7 134.805 38.8C134.255 39.8833 133.497 40.725 132.53 41.325C131.58 41.925 130.514 42.225 129.33 42.225C128.297 42.225 127.389 42.025 126.605 41.625C125.839 41.2083 125.222 40.675 124.755 40.025V42H121.255V23.5H124.755V30.175ZM132.08 35.025C132.08 34.1917 131.905 33.475 131.555 32.875C131.222 32.2583 130.772 31.7917 130.205 31.475C129.655 31.1583 129.055 31 128.405 31C127.772 31 127.172 31.1667 126.605 31.5C126.055 31.8167 125.605 32.2833 125.255 32.9C124.922 33.5167 124.755 34.2417 124.755 35.075C124.755 35.9083 124.922 36.6333 125.255 37.25C125.605 37.8667 126.055 38.3417 126.605 38.675C127.172 38.9917 127.772 39.15 128.405 39.15C129.055 39.15 129.655 38.9833 130.205 38.65C130.772 38.3167 131.222 37.8417 131.555 37.225C131.905 36.6083 132.08 35.875 132.08 35.025ZM151.074 34.775C151.074 35.275 151.04 35.725 150.974 36.125H140.849C140.932 37.125 141.282 37.9083 141.899 38.475C142.515 39.0417 143.274 39.325 144.174 39.325C145.474 39.325 146.399 38.7667 146.949 37.65H150.724C150.324 38.9833 149.557 40.0833 148.424 40.95C147.29 41.8 145.899 42.225 144.249 42.225C142.915 42.225 141.715 41.9333 140.649 41.35C139.599 40.75 138.774 39.9083 138.174 38.825C137.59 37.7417 137.299 36.4917 137.299 35.075C137.299 33.6417 137.59 32.3833 138.174 31.3C138.757 30.2167 139.574 29.3833 140.624 28.8C141.674 28.2167 142.882 27.925 144.249 27.925C145.565 27.925 146.74 28.2083 147.774 28.775C148.824 29.3417 149.632 30.15 150.199 31.2C150.782 32.2333 151.074 33.425 151.074 34.775ZM147.449 33.775C147.432 32.875 147.107 32.1583 146.474 31.625C145.84 31.075 145.065 30.8 144.149 30.8C143.282 30.8 142.549 31.0667 141.949 31.6C141.365 32.1167 141.007 32.8417 140.874 33.775H147.449Z" fill="white"/>
</svg>
